<svg width="200" height="266" viewBox="0 0 200 266" fill="none" xmlns="http://www.w3.org/2000/svg">
<path d="M133.187 163.696C133.187 163.696 127.176 176.628 131.35 181.191C135.523 185.755 138.343 163.19 138.343 163.19L133.187 163.696Z" fill="#A0616A"/>
<path d="M104.113 224.168L97.377 232.916C97.377 232.916 83.7604 238.495 96.2717 239.245C96.2717 239.245 102.396 238.739 103.62 237.85C104.845 236.96 105.583 235.188 108.036 236.204C110.488 237.22 113.312 235.188 113.312 235.188C113.312 235.188 113.679 225.298 111.226 224.159C108.774 223.02 104.113 224.168 104.113 224.168Z" fill="#36344A"/>
<path d="M129.261 227.336L127.666 234.565C127.666 234.565 124.108 243.185 129.261 241.916C134.415 240.647 136.99 239.255 137.48 236.72C137.97 234.185 139.317 231.393 139.317 231.393C139.317 231.393 137.844 227.463 136.497 227.336C135.15 227.21 129.261 227.336 129.261 227.336Z" fill="#36344A"/>
<path d="M96.3851 139.98C96.3851 139.98 91.9697 171.311 95.0378 188.4C98.1059 205.49 101.774 223.013 101.774 223.013C101.774 223.013 97.4874 233.14 112.185 226.438C112.185 226.438 111.205 201.332 108.259 191.572C105.314 181.811 109.772 168.633 110.997 168.254C110.997 168.254 115.896 193.739 120.688 202.116C125.48 210.494 128.144 230.001 128.144 230.001C128.144 230.001 138.451 231.393 138.328 228.605C138.206 225.817 136.365 202.234 130.367 193.866C130.367 193.866 125.214 179.919 128.53 165.466C131.846 151.012 124.972 146.066 124.972 146.066L114.059 132.755L103.143 130.223L96.3851 139.98Z" fill="#3F3D56"/>
<path d="M128.756 86.002C128.641 86.4146 128.456 86.8026 128.208 87.1476C127.952 87.4315 127.649 87.6662 127.314 87.8407C126.236 88.4693 125.095 88.9754 123.912 89.3502C123.606 89.9832 124.102 90.6953 124.573 91.208L125.957 92.7207C126.766 93.6005 127.574 94.4803 128.447 95.2905C130.134 96.8554 132.049 98.1369 134.121 99.0882C135.205 99.585 136.604 99.9395 137.474 99.1072C138.343 98.2748 138.126 96.8127 138.652 95.7272C138.719 95.6625 138.77 95.5828 138.802 95.4943C138.833 95.4058 138.845 95.3109 138.835 95.217C138.825 95.1232 138.794 95.033 138.745 94.9535C138.696 94.874 138.63 94.8074 138.551 94.7588C137.841 94.0341 137.697 92.8884 137.847 91.8694C137.997 90.8503 138.398 89.8883 138.628 88.885C138.858 87.8818 138.9 86.7615 138.383 85.8785C138.079 85.4089 137.685 85.0083 137.226 84.7012C136.22 83.964 135.1 83.4116 133.913 83.0682C133.3 82.8942 132.688 82.7771 132.075 82.5904C131.696 82.4701 130.667 81.7359 130.342 81.796C129.675 81.9099 128.992 85.2646 128.756 86.002Z" fill="#A0616A"/>
<path opacity="0.1" d="M128.756 86.002C128.641 86.4146 128.456 86.8026 128.208 87.1476C127.952 87.4315 127.649 87.6662 127.314 87.8407C126.236 88.4693 125.095 88.9754 123.912 89.3502C123.606 89.9832 124.102 90.6953 124.573 91.208L125.957 92.7207C126.766 93.6005 127.574 94.4803 128.447 95.2905C130.134 96.8554 132.049 98.1369 134.121 99.0882C135.205 99.585 136.604 99.9395 137.474 99.1072C138.343 98.2748 138.126 96.8127 138.652 95.7272C138.719 95.6625 138.77 95.5828 138.802 95.4943C138.833 95.4058 138.845 95.3109 138.835 95.217C138.825 95.1232 138.794 95.033 138.745 94.9535C138.696 94.874 138.63 94.8074 138.551 94.7588C137.841 94.0341 137.697 92.8884 137.847 91.8694C137.997 90.8503 138.398 89.8883 138.628 88.885C138.858 87.8818 138.9 86.7615 138.383 85.8785C138.079 85.4089 137.685 85.0083 137.226 84.7012C136.22 83.964 135.1 83.4116 133.913 83.0682C133.3 82.8942 132.688 82.7771 132.075 82.5904C131.696 82.4701 130.667 81.7359 130.342 81.796C129.675 81.9099 128.992 85.2646 128.756 86.002Z" fill="black"/>
<path d="M127.382 88.2774C127.366 88.0274 127.339 87.7362 127.133 87.6001C127.014 87.5322 126.878 87.5024 126.742 87.5147C123.845 87.5147 121.496 89.8693 119.675 92.1922C115.835 97.0817 112.806 102.601 110.182 108.288C108.569 111.791 107.071 115.732 108.109 119.463C108.438 120.569 108.926 121.618 109.558 122.574C110.428 123.939 111.484 125.168 112.693 126.223C113.147 126.674 113.71 126.991 114.322 127.14C115.241 127.292 116.113 126.77 116.897 126.267C118.471 125.254 120.038 124.231 121.597 123.197C124.13 121.52 126.662 119.814 128.894 117.732C131.126 115.649 133.065 113.162 134.164 110.269C134.632 109.041 134.945 107.737 135.471 106.547C136.274 104.715 137.569 103.098 138.028 101.142C138.245 100.208 138.264 99.2432 138.497 98.3096C138.68 97.5659 138.999 96.8634 139.152 96.1133C139.305 95.3633 139.268 94.5309 138.806 93.917C138.028 92.8979 136.515 93.0498 135.284 93.3125C133.68 93.6543 130.82 94.4961 129.292 93.4929C127.985 92.6289 127.473 89.7458 127.382 88.2774Z" fill="#EEEFF3"/>
<path d="M126.564 94.3379L124.846 94.4645L123.621 93.955L124.604 90.9136C124.604 90.9136 128.064 91.3187 128.419 92.4454C128.419 92.4454 128.677 93.2207 129.093 93.3347C129.51 93.4486 131.237 93.1954 131.595 94.0816C131.953 94.9677 131.84 99.7781 129.51 99.1451L128.407 96.1007L127.914 95.3411C127.914 95.3411 126.441 95.0974 126.564 94.3379Z" fill="#3F3D56"/>
<path d="M112.454 122.612C112.454 122.612 116.257 96.7462 128.156 87.483C128.156 87.483 128.279 85.0747 126.193 85.3278C124.108 85.581 115.4 83.8056 115.4 83.8056L107.181 100.291C107.181 100.291 105.344 115.63 103.991 118.165C102.637 120.7 94.1772 140.863 94.1772 140.863C94.1772 140.863 98.9631 157.471 106.076 135.166C106.076 135.166 100.565 153.297 116.135 155.073C131.705 156.848 129.874 154.057 129.874 154.057L131.711 140.872V130.979L135.147 124.017L149.131 105.633C149.131 105.633 139.638 92.0498 137.826 93.2619C137.829 93.2492 126.071 112.469 112.454 122.612Z" fill="#3F3D56"/>
<path d="M117.24 84.8278L115.403 83.8119C115.403 83.8119 109.76 85.9671 107.797 94.3379C107.797 94.3379 103.014 97.8856 99.8357 100.55C99.8357 100.55 95.549 92.3219 95.549 89.518C95.549 89.518 88.4329 94.4645 86.8376 93.1954C86.8376 93.1954 91.1244 113.608 99.2295 112.086C107.335 110.564 110.384 105.62 110.384 105.62L117.24 84.8278Z" fill="#3F3D56"/>
<path d="M144.473 106.383L149.134 105.62C149.134 105.62 152.079 109.677 146.804 115.637L143.613 135.796C143.613 135.796 143.98 142.515 142.878 147.588C141.776 152.661 140.055 168.254 140.055 168.254C140.055 168.254 134.415 166.098 131.347 166.478L136.007 119.706L144.473 106.383Z" fill="#3F3D56"/>
<path d="M95.2828 90.9073C95.2828 90.9073 92.7046 74.9316 88.2892 80.8909C83.8739 86.8501 88.7792 95.0911 88.7792 95.0911L95.2828 90.9073Z" fill="#A0616A"/>
<path d="M138.157 91.7396C143.644 91.7396 148.093 87.1418 148.093 81.47C148.093 75.7983 143.644 71.2004 138.157 71.2004C132.669 71.2004 128.22 75.7983 128.22 81.47C128.22 87.1418 132.669 91.7396 138.157 91.7396Z" fill="#A0616A"/>
<path d="M146.099 70.3903C145.872 70.098 145.668 69.788 145.487 69.463C144.89 68.5579 143.956 67.9661 143.037 67.4344C141.356 66.485 139.44 65.5925 137.569 66.0546C136.273 66.371 135.174 67.3205 133.87 67.5926C132.565 67.8648 131.016 67.5641 130.137 68.5769C129.258 69.5896 129.647 71.1846 128.891 72.2321C128.472 72.8113 127.694 73.343 127.905 74.0329C127.994 74.324 128.254 74.5298 128.374 74.8114C128.585 75.3051 128.325 75.8716 128.312 76.4128C128.297 77.2135 128.827 77.9002 129.2 78.6028C129.574 79.3054 129.776 80.2864 129.2 80.8371C131.149 79.2262 133.284 77.8729 135.557 76.8084C135.554 77.1332 135.472 77.452 135.318 77.7356C136.549 77.5483 137.767 77.2808 138.965 76.935L138.334 78.185L141.041 76.9634C141.773 76.6311 142.691 76.3305 143.316 76.8369C143.604 77.1206 143.806 77.4844 143.898 77.8844C144.255 79.0275 144.467 80.2136 144.529 81.4131C144.596 82.7676 144.529 84.2613 145.377 85.2962C145.617 85.5584 145.907 85.7668 146.228 85.9084C146.55 86.05 146.896 86.1218 147.245 86.1195C147.595 86.1171 147.94 86.0406 148.259 85.8946C148.579 85.7486 148.866 85.5363 149.103 85.2709C149.342 84.3215 148.984 83.3404 148.965 82.3657C148.938 80.9447 149.63 79.6092 149.755 78.1945C149.918 76.4064 148.895 75.3463 148.43 73.7639C148.249 73.1562 148.359 72.4378 148.013 71.865C147.566 71.1561 146.654 70.9979 146.099 70.3903Z" fill="#3F3D56"/>
<path d="M88.3534 99.354L91.8962 93.2049L89.0057 91.4263C89.6915 90.5972 92.0676 87.6983 92.7015 86.3437C92.7015 86.3437 96.2289 83.3815 96.9484 79.5459C96.9484 79.5459 97.9038 80.4763 98.755 79.2864C99.6062 78.0964 103.134 75.995 100.344 73.0803L100.568 71.8998C101.022 71.6472 101.399 71.2678 101.655 70.8048C102.267 69.7573 102.197 68.5895 101.523 68.1591C100.849 67.7287 99.8114 68.2541 99.2082 69.3016C98.9075 69.7988 98.766 70.3812 98.804 70.9663L97.9987 71.979C97.9987 71.979 95.0837 68.9883 93.1301 75.8273C93.1301 75.8273 92.9158 77.0647 93.5282 77.4413C93.5282 77.4413 90.5397 81.7612 90.206 83.7708C90.206 83.7708 87.6339 87.6635 87.6125 88.8344L86.8837 90.1003L83.8217 88.2204L80.2208 94.4771C78.4418 93.8853 77.1129 93.8442 76.7455 94.4771C76.1025 95.5943 78.6439 98.3856 82.4255 100.712C86.207 103.038 89.7895 104.016 90.4325 102.902C90.8459 102.215 89.9855 100.848 88.3534 99.354Z" fill="#6C63FF"/>
<path opacity="0.1" d="M100.528 70.02C100.272 70.4829 99.8967 70.8631 99.4439 71.1182L99.2173 72.2954C102.01 75.2102 98.4794 77.3147 97.6281 78.5047C97.5405 78.6621 97.4191 78.7966 97.2733 78.8981C97.1276 78.9995 96.9613 79.0651 96.7872 79.0899C96.6131 79.1146 96.4358 79.0978 96.269 79.0408C96.1021 78.9838 95.9501 78.8881 95.8246 78.761C95.1051 82.5967 91.5776 85.5589 91.5776 85.5589C90.9377 86.9166 88.5677 89.8155 87.8818 90.6415L88.9811 91.3187C89.667 90.4927 92.0431 87.5906 92.6769 86.2361C92.6769 86.2361 96.2043 83.2739 96.9239 79.4383C96.9239 79.4383 97.8792 80.3687 98.7304 79.1788C99.5817 77.9888 103.109 75.8874 100.32 72.9727L100.543 71.7922C100.996 71.5391 101.372 71.1598 101.627 70.6972C102.239 69.6529 102.172 68.4819 101.498 68.0515C101.296 67.932 101.062 67.8842 100.831 67.9154C100.934 68.2676 100.961 68.639 100.908 69.0029C100.856 69.3668 100.726 69.7142 100.528 70.02V70.02Z" fill="black"/>
<path opacity="0.1" d="M88.3381 99.2528L91.8808 93.1037L90.7877 92.4264L87.245 98.5755C88.877 100.072 89.7344 101.424 89.3302 102.139C88.7178 103.199 85.4445 102.364 81.8743 100.281C82.0549 100.395 82.2356 100.512 82.4224 100.626C86.2008 102.952 89.7864 103.933 90.4294 102.816C90.8183 102.114 89.9609 100.747 88.3381 99.2528Z" fill="black"/>
</svg>
